<?xml version="1.0" encoding="UTF-8" ?>
<!DOCTYPE svg PUBLIC "-//W3C//DTD SVG 1.1//EN" "http://www.w3.org/Graphics/SVG/1.1/DTD/svg11.dtd">
<svg width="590pt" height="274pt" viewBox="0 0 590 274" version="1.1" xmlns="http://www.w3.org/2000/svg">
<g id="#009df6ff">
<path fill="#009df6" opacity="1.00" d=" M 143.39 64.29 C 146.89 50.49 169.23 49.98 174.14 62.85 C 176.83 89.90 173.25 117.28 175.73 144.34 C 176.97 150.18 186.93 149.51 187.47 143.60 C 189.20 121.45 187.03 99.18 188.16 77.01 C 190.03 62.33 214.44 61.59 219.21 74.69 C 221.23 90.04 219.08 105.60 220.18 121.02 C 220.53 123.85 221.75 126.48 222.75 129.12 C 225.25 128.21 228.26 128.06 230.75 126.89 C 232.28 121.45 231.17 115.24 234.35 110.31 C 240.67 99.88 259.85 101.76 263.33 113.63 C 264.80 133.71 263.94 153.91 263.96 174.04 C 265.28 182.47 257.67 191.15 248.97 190.02 C 242.47 191.37 235.15 187.30 232.91 181.14 C 231.35 171.00 232.08 160.68 231.31 150.47 C 227.68 150.95 222.29 149.37 220.83 153.75 C 219.30 164.01 220.57 174.53 219.64 184.87 C 217.14 196.40 201.34 198.06 192.94 192.08 C 186.88 187.71 189.29 179.26 186.78 173.17 C 185.19 168.90 177.71 168.73 176.39 173.20 C 174.65 179.73 175.53 187.85 169.36 192.36 C 161.44 198.06 147.55 195.85 143.85 186.15 C 141.99 172.57 143.76 158.77 142.68 145.13 C 142.02 141.58 138.06 138.68 134.33 140.24 C 131.01 141.54 129.57 145.65 130.16 148.99 C 129.21 171.28 130.86 193.63 129.77 215.91 C 127.08 230.37 103.86 231.34 98.85 218.15 C 96.39 197.66 99.39 176.87 97.51 156.34 C 96.22 151.37 88.25 150.22 86.22 155.14 C 83.86 162.37 87.03 171.04 82.66 177.70 C 76.32 188.10 57.15 186.25 53.67 174.37 C 52.25 155.97 52.88 137.44 53.16 118.99 C 52.40 112.99 56.39 106.99 61.84 104.80 C 67.97 103.52 75.58 102.57 80.32 107.67 C 87.78 112.85 81.92 124.12 88.27 129.94 C 91.62 130.96 96.40 130.28 97.30 126.35 C 99.01 113.75 97.04 100.91 98.40 88.30 C 101.85 74.79 123.23 73.97 128.88 86.09 C 130.88 94.33 128.84 103.11 130.70 111.35 C 131.95 116.82 141.04 116.68 142.29 111.35 C 144.20 95.75 141.96 79.92 143.39 64.29 Z" />
</g>
<g id="#000000ff">
<path fill="#000000" opacity="1.00" d=" M 300.67 77.60 C 303.35 67.68 319.15 66.15 323.97 74.97 C 325.41 80.97 324.81 87.33 325.21 93.48 C 330.27 94.43 337.04 92.65 340.84 97.17 C 344.45 102.07 344.54 110.43 339.25 114.24 C 335.00 116.64 329.69 115.54 325.05 116.39 C 325.29 133.48 324.17 150.65 325.41 167.70 C 327.45 174.74 337.42 171.26 341.29 176.71 C 345.19 182.64 344.60 193.23 337.35 196.33 C 325.87 198.80 312.39 195.64 304.98 186.03 C 301.20 180.87 300.63 174.15 300.23 167.99 C 299.55 150.99 300.18 133.97 299.89 116.97 C 292.66 116.86 286.31 110.52 287.96 103.02 C 288.48 97.02 293.91 93.67 299.46 93.17 C 299.89 87.99 299.71 82.72 300.67 77.60 Z" />
<path fill="#000000" opacity="1.00" d=" M 356.37 98.38 C 368.65 86.15 389.22 84.96 404.08 92.92 C 420.31 101.58 426.89 124.31 417.10 140.08 C 409.32 152.63 396.86 161.20 386.73 171.69 C 395.28 172.50 404.40 170.46 412.67 173.33 C 422.42 176.82 421.54 194.02 411.39 196.36 C 394.31 197.68 377.11 197.21 360.00 196.84 C 352.58 196.67 346.74 189.33 347.86 182.00 C 346.61 175.56 351.75 170.87 355.78 166.80 C 367.92 155.26 380.68 144.35 392.26 132.24 C 396.47 127.87 397.24 119.85 392.34 115.66 C 388.27 110.76 379.79 111.05 375.45 115.45 C 372.39 119.46 371.64 124.61 369.92 129.22 C 366.70 139.15 350.24 138.62 346.44 129.56 C 344.12 118.29 348.47 106.48 356.37 98.38 Z" />
<path fill="#000000" opacity="1.00" d=" M 473.43 88.44 C 490.66 86.04 510.80 91.22 521.13 106.14 C 522.01 113.38 516.57 119.98 509.86 121.98 C 502.34 122.06 497.26 115.80 490.55 113.58 C 478.52 109.24 464.00 114.42 457.08 125.05 C 449.31 134.89 449.70 150.01 457.12 159.93 C 462.89 168.60 473.57 173.55 483.89 172.96 C 491.46 172.24 497.36 167.32 503.87 164.02 C 514.06 159.16 525.83 172.84 518.90 181.91 C 500.71 200.45 469.01 201.76 448.23 186.76 C 429.86 174.45 421.17 150.08 426.67 128.81 C 432.17 107.37 451.32 90.64 473.43 88.44 Z" />
</g>
</svg>
